<svg xmlns="http://www.w3.org/2000/svg" version="1.1" xmlns:xlink="http://www.w3.org/1999/xlink" xmlns:svgjs="http://svgjs.dev/svgjs" width="1500" height="1500" viewBox="0 0 1500 1500"><rect width="1500" height="1500" fill="#ffffff"></rect><g transform="matrix(0.6666666666666666,0,0,0.6666666666666666,249.85778443113782,249.85778443113765)"><svg viewBox="0 0 334 334" data-background-color="#ffffff" preserveAspectRatio="xMidYMid meet" height="1500" width="1500" xmlns="http://www.w3.org/2000/svg" xmlns:xlink="http://www.w3.org/1999/xlink"><g id="tight-bounds" transform="matrix(1,0,0,1,0.04749999999998522,0.04750000000001364)"><svg viewBox="0 0 333.90454557049503 333.90454557049503" height="333.90454557049503" width="333.90454557049503"><g><svg></svg></g><g><svg viewBox="0 0 333.90454557049503 333.90454557049503" height="333.90454557049503" width="333.90454557049503"><g><path d="M0 166.952c0-92.205 74.747-166.952 166.952-166.952 92.205 0 166.952 74.747 166.953 166.952 0 92.205-74.747 166.952-166.953 166.953-92.205 0-166.952-74.747-166.952-166.953zM166.952 316.63c82.665 0 149.677-67.013 149.678-149.678 0-82.665-67.013-149.677-149.678-149.677-82.665 0-149.677 67.013-149.677 149.677 0 82.665 67.013 149.677 149.677 149.678z" data-fill-palette-color="tertiary" fill="#000000" stroke="transparent"></path><ellipse rx="160.27418187383762" ry="160.27418187383762" cx="166.95227278524752" cy="166.95227278524752" fill="#000000" stroke="transparent" stroke-width="0" fill-opacity="1" data-fill-palette-color="tertiary"></ellipse></g><g transform="matrix(1,0,0,1,91.2579957240171,71.17305217166897)"><svg viewBox="0 0 151.38855412246082 191.5584412271571" height="191.5584412271571" width="151.38855412246082"><g><svg viewBox="0 0 151.38855412246082 191.5584412271571" height="191.5584412271571" width="151.38855412246082"><g><svg viewBox="0 0 151.38855412246082 191.5584412271571" height="191.5584412271571" width="151.38855412246082"><g><svg viewBox="0 0 151.38855412246082 191.5584412271571" height="191.5584412271571" width="151.38855412246082"><g id="textblocktransform"><svg viewBox="0 0 151.38855412246082 191.5584412271571" height="191.5584412271571" width="151.38855412246082" id="textblock"><g><svg viewBox="0 0 151.38855412246082 191.5584412271571" height="191.5584412271571" width="151.38855412246082"><g transform="matrix(1,0,0,1,0,0)"><svg width="151.38855412246082" viewBox="4 -34.5 27.7 35.05" height="191.5584412271571" data-palette-color="#6ee2f5"><path d="M14.25 0.55L14.25 0.55Q10.7 0.55 4 0L4 0 4.6-12.15 4-34.5 17.35-34.5Q24.1-34.5 27.9-30.45 31.7-26.4 31.7-19.2L31.7-19.2Q31.7-10.1 27-4.78 22.3 0.55 14.25 0.55ZM15.55-29.1L15.55-29.1Q12.25-29.1 10.9-29.05L10.9-29.05 10.4-13 10.75-4.9Q14.95-4.6 16.4-4.6L16.4-4.6Q20.35-4.6 22.63-7.8 24.9-11 24.9-17.1 24.9-23.2 22.68-26.15 20.45-29.1 15.55-29.1Z" opacity="1" transform="matrix(1,0,0,1,0,0)" fill="#6ee2f5" class="wordmark-text-0" data-fill-palette-color="quaternary" id="text-0"></path></svg></g></svg></g></svg></g></svg></g><g></g></svg></g></svg></g></svg></g></svg></g><defs></defs></svg><rect width="333.90454557049503" height="333.90454557049503" fill="none" stroke="none" visibility="hidden"></rect></g></svg></g></svg>